<svg width="25" height="25" viewBox="0 0 25 25" fill="none" xmlns="http://www.w3.org/2000/svg">
<path d="M4.01086 2.68523L4.09101 21.4851C4.09135 21.5638 4.1072 21.6418 4.13766 21.7145C4.16813 21.7871 4.2126 21.8531 4.26855 21.9086C4.32451 21.964 4.39084 22.008 4.46376 22.0378C4.53668 22.0676 4.61477 22.0828 4.69356 22.0825L19.4934 22.0194C19.5722 22.0191 19.6502 22.0032 19.7228 21.9727C19.7955 21.9423 19.8615 21.8978 19.9169 21.8419C19.9724 21.7859 20.0163 21.7196 20.0462 21.6466C20.076 21.5737 20.0912 21.4956 20.0909 21.4168L20.0241 5.76698C20.024 5.68788 20.0082 5.60959 19.9777 5.5366C19.9472 5.46362 19.9025 5.3974 19.8463 5.34174L16.6849 2.20719C16.572 2.09511 16.4193 2.03246 16.2602 2.033L4.6083 2.08267C4.44917 2.08335 4.29683 2.14722 4.18478 2.26022C4.07274 2.37322 4.01018 2.5261 4.01086 2.68523Z" stroke="#C460CE" stroke-width="1.5" stroke-linecap="round" stroke-linejoin="round"/>
<path d="M16.0083 2.03409L16.0228 5.43405C16.0235 5.59318 16.0873 5.74552 16.2003 5.85757C16.3133 5.96961 16.4662 6.03217 16.6253 6.03149L20.0253 6.017" stroke="#C460CE" stroke-width="1.5" stroke-linecap="round" stroke-linejoin="round"/>
</svg>
